<svg width="106" height="105" viewBox="0 0 106 105" fill="none" xmlns="http://www.w3.org/2000/svg">
<g clip-path="url(#clip0_44_2725)">
<path d="M90.4768 89.6231C111.175 69.1206 111.175 35.8794 90.4768 15.3769C69.7791 -5.12563 36.2213 -5.12562 15.5235 15.3769C-5.17425 35.8794 -5.17425 69.1206 15.5235 89.6231C36.2213 110.126 69.7791 110.126 90.4768 89.6231Z" fill="#FAA634"/>
<path d="M41.4089 42.9055H30.7285V75.762H41.4089V42.9055Z" fill="white"/>
<path d="M36.4272 39.0384C39.6317 39.0384 42.2294 36.4652 42.2294 33.2909C42.2294 30.1167 39.6317 27.5435 36.4272 27.5435C33.2227 27.5435 30.625 30.1167 30.625 33.2909C30.625 36.4652 33.2227 39.0384 36.4272 39.0384Z" fill="white"/>
<path d="M67.4902 42.9055C63.4056 42.9055 60.4158 44.839 58.4538 46.7593V42.9055H47.7734V75.762H58.4538V54.4502C61.5742 49.7673 68.7223 51.4455 68.7223 56.7419V75.7653H80.531V57.2526C80.531 48.1986 75.6026 42.9088 67.4902 42.9088V42.9055Z" fill="white"/>
</g>
<defs>
<clipPath id="clip0_44_2725">
<rect width="106" height="105" fill="white"/>
</clipPath>
</defs>
</svg>
