<svg width="106" height="105" viewBox="0 0 106 105" fill="none" xmlns="http://www.w3.org/2000/svg">
<g clip-path="url(#clip0_44_2720)">
<path d="M90.4768 89.6231C111.175 69.1206 111.175 35.8794 90.4768 15.3769C69.7791 -5.12563 36.2213 -5.12562 15.5235 15.3769C-5.17425 35.8794 -5.17425 69.1206 15.5235 89.6231C36.2213 110.126 69.7791 110.126 90.4768 89.6231Z" fill="#FAA634"/>
<path d="M64.3634 25.1787H40.1501C31.0869 25.1787 23.7412 32.4551 23.7412 41.4328V64.7809C23.7412 73.7586 31.0869 81.035 40.1501 81.035H64.3634C73.4266 81.035 80.7723 73.7586 80.7723 64.7809V41.4328C80.7723 32.4551 73.4266 25.1787 64.3634 25.1787ZM52.5681 66.1008C45.6075 66.1008 39.966 60.5126 39.966 53.6176C39.966 46.7226 45.6075 41.1343 52.5681 41.1343C59.5288 41.1343 65.1703 46.7226 65.1703 53.6176C65.1703 60.5126 59.5288 66.1008 52.5681 66.1008Z" fill="white"/>
<path d="M70.4759 40.0292C72.2099 39.3177 73.0333 37.3486 72.315 35.631C71.5968 33.9134 69.6089 33.0978 67.875 33.8092C66.141 34.5207 65.3176 36.4898 66.0358 38.2074C66.7541 39.925 68.7419 40.7407 70.4759 40.0292Z" fill="#FAA634"/>
</g>
<defs>
<clipPath id="clip0_44_2720">
<rect width="106" height="105" fill="white"/>
</clipPath>
</defs>
</svg>
