<svg width="104" height="104" viewBox="0 0 104 104" fill="none" xmlns="http://www.w3.org/2000/svg">
<g clip-path="url(#clip0_44_2714)">
<path d="M52 104C80.7188 104 104 80.7188 104 52C104 23.2812 80.7188 0 52 0C23.2812 0 0 23.2812 0 52C0 80.7188 23.2812 104 52 104Z" fill="#FAA634"/>
<path d="M79.8538 75.7323C72.7497 66.2654 65.6469 56.7972 58.5494 47.3237C57.511 48.4259 56.4792 49.5215 55.4474 50.6238C62.392 59.8872 69.3432 69.1507 76.2878 78.4075C76.4155 78.579 76.5431 78.7452 76.6694 78.9167H67.6985L50.6435 55.7455C49.6051 56.8477 48.5666 57.9566 47.5348 59.0589C51.6314 64.614 55.7213 70.1758 59.8112 75.7323C61.6913 78.2812 63.5634 80.8287 65.4435 83.3776H85.5885C83.6712 80.8287 81.7592 78.2812 79.8552 75.7323H79.8538ZM28.0639 25.0818H36.2889L43.2202 34.32C46.3608 38.5057 49.5027 42.6979 52.6432 46.8836C53.675 45.7813 54.7068 44.6857 55.7399 43.5835C50 35.9315 44.2587 28.2796 38.5187 20.6223H19.2393C24.6681 28.0004 30.0956 35.3718 35.5244 42.7485C38.6078 46.9275 41.6859 51.1078 44.7626 55.2868C45.7944 54.1845 46.8262 53.0823 47.8646 51.98L28.0639 25.0818Z" fill="white"/>
<path d="M50.642 55.7469C49.6036 56.8492 48.5652 57.9581 47.5334 59.0603C42.316 64.6155 37.0972 70.1773 31.8798 75.7337C29.4905 78.2826 27.1012 80.8302 24.7065 83.379H18.4121C20.8014 80.8302 23.1908 78.2826 25.5854 75.7337C28.9041 72.1916 32.2308 68.6495 35.5495 65.1061C38.621 61.8312 41.691 58.563 44.7625 55.2882C45.7942 54.186 46.826 53.0837 47.8645 51.9814L50.642 55.7469Z" fill="white"/>
<path d="M83.6073 20.6223C75.2547 29.5228 66.902 38.4232 58.5494 47.3237C57.5109 48.4259 56.4791 49.5215 55.4474 50.6238C54.5166 49.3819 53.5806 48.1321 52.6445 46.8836C53.6763 45.7813 54.7081 44.6857 55.7412 43.5835C62.9211 35.9315 70.1011 28.2743 77.2823 20.6223H83.6087H83.6073Z" fill="white"/>
</g>
<defs>
<clipPath id="clip0_44_2714">
<rect width="104" height="104" fill="white"/>
</clipPath>
</defs>
</svg>
