<svg width="106" height="105" viewBox="0 0 106 105" fill="none" xmlns="http://www.w3.org/2000/svg">
<g clip-path="url(#clip0_44_2695)">
<path d="M90.4768 89.6231C111.175 69.1206 111.175 35.8794 90.4768 15.3769C69.7791 -5.12563 36.2213 -5.12562 15.5235 15.3769C-5.17425 35.8794 -5.17425 69.1206 15.5235 89.6231C36.2213 110.126 69.7791 110.126 90.4768 89.6231Z" fill="#FAA634"/>
<path d="M64.3634 25.1787H40.1501C31.0869 25.1787 23.7412 32.4551 23.7412 41.4328V64.7809C23.7412 73.7586 31.0869 81.035 40.1501 81.035H64.3634C73.4266 81.035 80.7723 73.7586 80.7723 64.7809V41.4328C80.7723 32.4551 73.4266 25.1787 64.3634 25.1787ZM52.5681 66.1008C45.6075 66.1008 39.966 60.5126 39.966 53.6176C39.966 46.7226 45.6075 41.1343 52.5681 41.1343C59.5288 41.1343 65.1703 46.7226 65.1703 53.6176C65.1703 60.5126 59.5288 66.1008 52.5681 66.1008Z" fill="white"/>
<path d="M70.4759 40.0292C72.2099 39.3177 73.0333 37.3486 72.315 35.631C71.5968 33.9134 69.6089 33.0978 67.875 33.8092C66.141 34.5207 65.3176 36.4898 66.0358 38.2074C66.7541 39.925 68.7419 40.7407 70.4759 40.0292Z" fill="#FAA634"/>
<g clip-path="url(#clip1_44_2695)">
<path d="M90.4768 89.6231C111.175 69.1206 111.175 35.8794 90.4768 15.3769C69.7791 -5.12563 36.2213 -5.12562 15.5235 15.3769C-5.17425 35.8794 -5.17425 69.1206 15.5235 89.6231C36.2213 110.126 69.7791 110.126 90.4768 89.6231Z" fill="#FAA634"/>
<path d="M41.4089 42.9055H30.7285V75.762H41.4089V42.9055Z" fill="white"/>
<path d="M36.4272 39.0384C39.6317 39.0384 42.2294 36.4652 42.2294 33.2909C42.2294 30.1167 39.6317 27.5435 36.4272 27.5435C33.2227 27.5435 30.625 30.1167 30.625 33.2909C30.625 36.4652 33.2227 39.0384 36.4272 39.0384Z" fill="white"/>
<path d="M67.4902 42.9055C63.4056 42.9055 60.4158 44.839 58.4538 46.7593V42.9055H47.7734V75.762H58.4538V54.4502C61.5742 49.7673 68.7223 51.4455 68.7223 56.7419V75.7653H80.531V57.2526C80.531 48.1986 75.6026 42.9088 67.4902 42.9088V42.9055Z" fill="white"/>
<g clip-path="url(#clip2_44_2695)">
<path d="M52.9365 104.542C81.9876 104.542 105.538 81.2139 105.538 52.4369C105.538 23.6599 81.9876 0.331543 52.9365 0.331543C23.8855 0.331543 0.334961 23.6599 0.334961 52.4369C0.334961 81.2139 23.8855 104.542 52.9365 104.542Z" fill="#FAA634"/>
<path d="M72.1546 29.573V17.03C72.1546 17.03 42.8423 10.5463 42.8423 33.6622V46.036H30.8896V59.2423H42.6983V95.2527H58.7757V59.2423C58.7757 59.2423 69.4461 59.5242 69.4461 59.2423C69.4461 58.9604 71.5788 46.036 71.5788 46.036H57.9186C57.9186 46.036 56.2111 29.1518 64.7487 29.1518C69.8713 29.1518 72.148 29.573 72.148 29.573H72.1546Z" fill="white"/>
</g>
</g>
</g>
<defs>
<clipPath id="clip0_44_2695">
<rect width="106" height="105" fill="white"/>
</clipPath>
<clipPath id="clip1_44_2695">
<rect width="106" height="105" fill="white"/>
</clipPath>
<clipPath id="clip2_44_2695">
<rect width="105.2" height="104.207" fill="white" transform="translate(0.334961 0.331543)"/>
</clipPath>
</defs>
</svg>
