<svg width="80" height="80" viewBox="0 0 80 80" fill="none" xmlns="http://www.w3.org/2000/svg">
<g id="Dignidade" clip-path="url(#clip0_114_2)">
<path id="Vector" d="M40 80C62.0914 80 80 62.0914 80 40C80 17.9086 62.0914 0 40 0C17.9086 0 0 17.9086 0 40C0 62.0914 17.9086 80 40 80Z" fill="#FA6366"/>
<g id="Group">
<path id="Vector_2" d="M68.1722 47.5797C68.1368 47.6608 68.0862 47.7367 68.0659 47.8177C67.7216 49.2051 66.9064 50.2076 65.595 50.7848C59.3621 53.5342 53.1292 56.2785 46.8963 59.0228C45.2203 59.762 43.5748 60.5671 41.7469 60.8861C38.1824 61.5089 34.8609 60.8608 31.7672 59.0076C29.9748 57.9342 28.1824 56.8658 26.395 55.7823C25.3216 55.1342 24.1317 54.8557 22.9216 54.638C22.709 54.6025 22.5976 54.6683 22.4912 54.8658C21.7925 56.1873 20.6786 56.7443 19.2001 56.724C17.1849 56.6937 15.1647 56.719 13.1495 56.7139C12.2381 56.7139 11.833 56.319 11.833 55.4127C11.833 48.9367 11.833 42.4658 11.833 35.9899C11.833 35.1291 12.2533 34.7089 13.1191 34.7038C15.2457 34.6987 17.3722 34.6886 19.5039 34.7038C20.8457 34.719 21.8634 35.3367 22.476 36.5367C22.6279 36.8354 22.8001 36.9063 23.1039 36.9063C25.433 36.8962 27.7621 36.9165 30.0912 36.8962C31.6507 36.8861 33.0988 37.2405 34.4507 38.0202C36.2178 39.0278 37.995 40.0101 39.7621 41.0177C40.1064 41.2152 40.4558 41.3114 40.8558 41.3114C43.0026 41.3013 45.1495 41.357 47.2912 41.2911C50.552 41.1949 52.4254 43.8582 52.076 46.3038C52.076 46.3392 52.0912 46.3747 52.1115 46.4608C53.114 46.1165 54.1115 45.7772 55.109 45.438C57.4786 44.6228 59.8533 43.8076 62.2229 42.9823C63.1241 42.6683 64.0406 42.5418 64.9773 42.7797C66.5976 43.1949 67.6052 44.2329 68.0457 45.8329C68.0862 45.9747 68.1317 46.1114 68.1773 46.2481V47.5696L68.1722 47.5797ZM22.8305 45.7721C22.8305 47.7519 22.8609 49.7367 22.8102 51.7114C22.795 52.319 23.0077 52.4608 23.5444 52.5367C25.0634 52.7494 26.4912 53.2456 27.8077 54.0608C29.4887 55.1038 31.19 56.1114 32.8963 57.119C36.4862 59.2405 40.2178 59.5342 44.0558 57.8633C49.3267 55.5696 54.5824 53.2354 59.8431 50.9215C61.4836 50.1975 63.1343 49.4886 64.7647 48.7494C65.6659 48.3392 66.1216 47.4025 65.9241 46.4861C65.7165 45.5038 65.0431 44.9316 64.0355 44.8759C63.6457 44.8557 63.276 44.957 62.9064 45.0835C58.7191 46.5266 54.5267 47.9696 50.3444 49.4177C49.3419 49.7671 48.3798 50.1468 47.271 50.1316C43.8229 50.0861 40.3748 50.1164 36.9267 50.1114C36.7444 50.1114 36.5571 50.1215 36.3748 50.1013C35.8634 50.0405 35.4684 49.6304 35.4178 49.1139C35.3672 48.6329 35.6609 48.1823 36.1317 47.9899C36.3798 47.8886 36.6381 47.9089 36.8912 47.9089C40.4659 47.9089 44.0457 47.9089 47.6203 47.9089C48.6482 47.9089 49.4684 47.3367 49.7773 46.4253C50.2684 44.9772 49.2254 43.5291 47.6406 43.5139C45.3874 43.4937 43.1292 43.4937 40.876 43.5139C40.0811 43.519 39.3621 43.3316 38.6735 42.9367C36.9064 41.9291 35.1241 40.9468 33.3621 39.9392C32.3647 39.3671 31.3064 39.0937 30.1621 39.0987C27.8887 39.1139 25.6153 39.1139 23.3419 39.0937C22.9419 39.0937 22.8102 39.1747 22.8153 39.6C22.8406 41.6557 22.8254 43.7063 22.8254 45.762L22.8305 45.7721ZM14.0254 45.6557C14.0254 48.4405 14.0355 51.2304 14.0153 54.0152C14.0153 54.4304 14.1216 54.5367 14.5317 54.5316C16.1267 54.5063 17.7216 54.5266 19.3166 54.5215C20.2229 54.5215 20.6229 54.1215 20.6229 53.2101C20.6229 48.2228 20.6229 43.2354 20.6229 38.2481C20.6229 37.3215 20.2128 36.9165 19.271 36.9114C17.6963 36.9114 16.1166 36.9316 14.5419 36.8962C14.0862 36.8861 14.0102 37.0481 14.0102 37.4532C14.0254 40.1873 14.0203 42.9165 14.0203 45.6506L14.0254 45.6557Z" fill="white"/>
<path id="Vector_3" d="M17.3317 39.1139C17.9343 39.1139 18.4457 39.6354 18.4254 40.238C18.4102 40.8304 17.9242 41.3013 17.3267 41.3013C16.714 41.3013 16.2128 40.7899 16.233 40.1823C16.2482 39.6 16.7495 39.1089 17.3317 39.1089V39.1139Z" fill="white"/>
</g>
<g id="Group_2">
<path id="Vector_4" d="M44.9113 18.2278C45.8328 18.2278 46.5822 18.9772 46.5822 19.8987C46.5822 20.8203 45.8328 21.5696 44.9113 21.5696C43.9898 21.5696 43.2404 20.8203 43.2404 19.8987C43.2404 18.9772 43.9898 18.2278 44.9113 18.2278ZM44.9113 16.7089C43.1493 16.7089 41.7214 18.1367 41.7214 19.8987C41.7214 21.6608 43.1493 23.0886 44.9113 23.0886C46.6733 23.0886 48.1012 21.6608 48.1012 19.8987C48.1012 18.1367 46.6733 16.7089 44.9113 16.7089Z" fill="white"/>
<path id="Vector_5" d="M44.9113 31.0886C45.8328 31.0886 46.5822 31.838 46.5822 32.7595C46.5822 33.681 45.8328 34.4304 44.9113 34.4304C43.9898 34.4304 43.2404 33.681 43.2404 32.7595C43.2404 31.838 43.9898 31.0886 44.9113 31.0886ZM44.9113 29.5696C43.1493 29.5696 41.7214 30.9975 41.7214 32.7595C41.7214 34.5215 43.1493 35.9494 44.9113 35.9494C46.6733 35.9494 48.1012 34.5215 48.1012 32.7595C48.1012 30.9975 46.6733 29.5696 44.9113 29.5696Z" fill="white"/>
</g>
<g id="Group_3">
<path id="Vector_6" d="M38.4809 24.6582C39.4024 24.6582 40.1518 25.4076 40.1518 26.3291C40.1518 27.2506 39.4024 28 38.4809 28C37.5594 28 36.81 27.2506 36.81 26.3291C36.81 25.4076 37.5594 24.6582 38.4809 24.6582ZM38.4809 23.1392C36.7189 23.1392 35.291 24.5671 35.291 26.3291C35.291 28.0911 36.7189 29.519 38.4809 29.519C40.2429 29.519 41.6708 28.0911 41.6708 26.3291C41.6708 24.5671 40.2429 23.1392 38.4809 23.1392Z" fill="white"/>
<path id="Vector_7" d="M51.3417 24.6582C52.2632 24.6582 53.0126 25.4076 53.0126 26.3291C53.0126 27.2506 52.2632 28 51.3417 28C50.4202 28 49.6708 27.2506 49.6708 26.3291C49.6708 25.4076 50.4202 24.6582 51.3417 24.6582ZM51.3417 23.1392C49.5797 23.1392 48.1519 24.5671 48.1519 26.3291C48.1519 28.0911 49.5797 29.519 51.3417 29.519C53.1038 29.519 54.5316 28.0911 54.5316 26.3291C54.5316 24.5671 53.1038 23.1392 51.3417 23.1392Z" fill="white"/>
</g>
</g>
<defs>
<clipPath id="clip0_114_2">
<rect width="80" height="80" fill="white"/>
</clipPath>
</defs>
</svg>
