<svg width="80" height="80" viewBox="0 0 80 80" fill="none" xmlns="http://www.w3.org/2000/svg">
<g id="Espa&#195;&#167;o" clip-path="url(#clip0_114_33)">
<path id="Vector" d="M40 80C62.0914 80 80 62.0914 80 40C80 17.9086 62.0914 0 40 0C17.9086 0 0 17.9086 0 40C0 62.0914 17.9086 80 40 80Z" fill="#FA6366"/>
<g id="Group">
<path id="Vector_2" d="M28.5468 40.8354C27.6557 38.7899 27.3265 36.4051 28.6025 34.5772C28.9519 34.0759 29.3772 33.5949 29.8987 33.1696C30.5215 32.6582 32.3797 31.7367 39.5747 31.6861C45.0126 31.6456 48.2734 31.6557 50.0962 33.1747C50.6076 33.6 51.0329 34.0759 51.3772 34.5772C52.6582 36.4101 52.3341 38.7949 51.443 40.8456C50.6379 43.281 49.7215 45.8025 48.6835 48.3949C46.5468 53.7266 44.2228 58.5266 41.8835 62.7797C41.5544 63.5342 40.8101 64.0203 39.9898 64.0203C39.2202 64.0203 38.4557 63.6051 38.0962 62.7797C35.8278 58.7038 33.5544 54.0759 31.4683 48.9013C30.3443 46.1165 29.3772 43.4228 28.5367 40.8405L28.5468 40.8354Z" fill="white"/>
<path id="Vector_3" d="M40 29.6557C43.7751 29.6557 46.8354 26.5954 46.8354 22.8202C46.8354 19.0451 43.7751 15.9848 40 15.9848C36.2249 15.9848 33.1646 19.0451 33.1646 22.8202C33.1646 26.5954 36.2249 29.6557 40 29.6557Z" fill="white"/>
</g>
</g>
<defs>
<clipPath id="clip0_114_33">
<rect width="80" height="80" fill="white"/>
</clipPath>
</defs>
</svg>
