<svg width="80" height="80" viewBox="0 0 80 80" fill="none" xmlns="http://www.w3.org/2000/svg">
<g id="Governos" clip-path="url(#clip0_114_13)">
<path id="Vector" d="M40 80C62.0914 80 80 62.0914 80 40C80 17.9086 62.0914 0 40 0C17.9086 0 0 17.9086 0 40C0 62.0914 17.9086 80 40 80Z" fill="#FA6366"/>
<path id="Vector_2" d="M63.2911 28.3494C63.1089 29.8228 62.2076 30.8506 61.2 31.8532C53.7418 39.2658 46.3038 46.6987 38.8709 54.1317C37.8228 55.1798 36.5975 55.7165 35.1038 55.5848C34.162 55.5038 33.3215 55.1544 32.6076 54.5165C32.4152 54.3443 32.2329 54.162 32.0456 53.9797C28.4101 50.3544 24.7899 46.7139 21.1342 43.1089C20.1316 42.1215 19.2506 41.0987 19.0481 39.6456V38.6987C19.2253 37.9949 19.3975 37.2861 19.8278 36.6734C21.357 34.4962 24.4456 34.1114 26.4152 35.9038C27.4987 36.8911 28.5063 37.9595 29.5443 38.9924C31.4177 40.8608 33.2962 42.7241 35.1544 44.6076C35.438 44.8962 35.5797 44.9165 35.8835 44.6177C42.4354 38.0557 49.0076 31.5089 55.5645 24.9519C56.5671 23.9494 57.7519 23.443 59.1696 23.5291C61.2202 23.6557 62.8861 25.1797 63.2101 27.2051C63.2253 27.3013 63.2608 27.3975 63.2861 27.4886V28.3494H63.2911Z" fill="white"/>
</g>
<defs>
<clipPath id="clip0_114_13">
<rect width="80" height="80" fill="white"/>
</clipPath>
</defs>
</svg>
