<svg width="80" height="80" viewBox="0 0 80 80" fill="none" xmlns="http://www.w3.org/2000/svg">
<g id="Sa&#195;&#186;de" clip-path="url(#clip0_114_19)">
<path id="Vector" d="M40 80C62.0914 80 80 62.0914 80 40C80 17.9086 62.0914 0 40 0C17.9086 0 0 17.9086 0 40C0 62.0914 17.9086 80 40 80Z" fill="#FA6366"/>
<path id="Vector_2" d="M62.8761 33.9848V35.4076C62.7292 36.2177 62.6938 37.043 62.5166 37.8532C61.99 40.2278 61.0381 42.4253 59.3368 44.1519C53.2558 50.3139 47.1039 56.4101 40.9773 62.5266C40.3748 63.1291 39.8988 63.1291 39.3014 62.5266C33.2204 56.4253 27.0583 50.4051 21.0432 44.238C20.2533 43.4278 19.6204 42.4962 19.0988 41.4937C17.6457 38.7089 17.1343 35.7519 17.5799 32.643C18.1621 28.6025 19.99 25.2759 23.4735 23.0633C26.8204 20.9367 30.3444 20.6886 33.9039 22.6228C36.233 23.8886 38.0811 25.7063 39.7419 27.7418C40.1419 28.2329 40.1368 28.2329 40.5267 27.7519C42.0052 25.924 43.6659 24.2886 45.6659 23.0278C48.5723 21.1899 51.6507 20.7848 54.8558 22.0759C58.9621 23.7316 61.2811 26.9316 62.4153 31.1038C62.6735 32.0506 62.7242 33.0228 62.8761 33.9848Z" fill="white"/>
</g>
<defs>
<clipPath id="clip0_114_19">
<rect width="80" height="80" fill="white"/>
</clipPath>
</defs>
</svg>
